<?xml version="1.0" encoding="UTF-8" standalone="no"?>
<!DOCTYPE svg PUBLIC "-//W3C//DTD SVG 1.1//EN"
 "http://www.w3.org/Graphics/SVG/1.1/DTD/svg11.dtd">
<!-- Generated by graphviz version 2.47.0 (20210316.0004)
 -->
<!-- Title: dependencies Pages: 1 -->
<svg width="1154pt" height="298pt"
 viewBox="0.00 0.00 1154.00 298.00" xmlns="http://www.w3.org/2000/svg" xmlns:xlink="http://www.w3.org/1999/xlink">
<g id="graph0" class="graph" transform="scale(1 1) rotate(0) translate(4 294)">
<title>dependencies</title>
<polygon fill="white" stroke="transparent" points="-4,4 -4,-294 1150,-294 1150,4 -4,4"/>
<text text-anchor="start" x="552.01" y="-42.4" font-family="Times-12" font-weight="bold" font-size="14.00">Legend</text>
<polygon fill="#ffffb3" stroke="transparent" points="339,-10 339,-30 359,-30 359,-10 339,-10"/>
<text text-anchor="start" x="362.63" y="-15.4" font-family="Times-12" font-size="14.00"> &#160;Declarations</text>
<polygon fill="#8dd3c7" stroke="transparent" points="452,-10 452,-30 472,-30 472,-10 452,-10"/>
<text text-anchor="start" x="475.73" y="-15.4" font-family="Times-12" font-size="14.00"> &#160;Module</text>
<polygon fill="#80b1d3" stroke="transparent" points="538,-10 538,-30 558,-30 558,-10 538,-10"/>
<text text-anchor="start" x="561.78" y="-15.4" font-family="Times-12" font-size="14.00"> &#160;Bootstrap</text>
<polygon fill="#fdb462" stroke="transparent" points="635,-10 635,-30 655,-30 655,-10 635,-10"/>
<text text-anchor="start" x="658.67" y="-15.4" font-family="Times-12" font-size="14.00"> &#160;Providers</text>
<polygon fill="#fb8072" stroke="transparent" points="731,-10 731,-30 751,-30 751,-10 731,-10"/>
<text text-anchor="start" x="754.73" y="-15.4" font-family="Times-12" font-size="14.00"> &#160;Exports</text>
<g id="clust13" class="cluster">
<title>cluster_MetaOptionsModule</title>
<polygon fill="none" stroke="black" stroke-dasharray="1,5" points="8,-70 8,-198 220,-198 220,-70 8,-70"/>
</g>
<g id="clust18" class="cluster">
<title>cluster_MetaOptionsModule_providers</title>
<polygon fill="none" stroke="black" points="16,-78 16,-130 212,-130 212,-78 16,-78"/>
</g>
<g id="clust19" class="cluster">
<title>cluster_PostsModule</title>
<polygon fill="none" stroke="black" stroke-dasharray="1,5" points="228,-70 228,-198 496,-198 496,-70 228,-70"/>
</g>
<g id="clust21" class="cluster">
<title>cluster_PostsModule_imports</title>
<polygon fill="none" stroke="black" points="380,-78 380,-130 488,-130 488,-78 380,-78"/>
</g>
<g id="clust24" class="cluster">
<title>cluster_PostsModule_providers</title>
<polygon fill="none" stroke="black" points="236,-78 236,-130 372,-130 372,-78 236,-78"/>
</g>
<g id="clust1" class="cluster">
<title>cluster_AppModule</title>
<polygon fill="none" stroke="black" stroke-dasharray="1,5" points="504,-138 504,-274 866,-274 866,-138 504,-138"/>
</g>
<g id="clust6" class="cluster">
<title>cluster_AppModule_providers</title>
<polygon fill="none" stroke="black" points="512,-146 512,-198 642,-198 642,-146 512,-146"/>
</g>
<g id="clust3" class="cluster">
<title>cluster_AppModule_imports</title>
<polygon fill="none" stroke="black" points="650,-146 650,-198 858,-198 858,-146 650,-146"/>
</g>
<g id="clust31" class="cluster">
<title>cluster_UsersModule</title>
<polygon fill="none" stroke="black" stroke-dasharray="1,5" points="874,-138 874,-206 1134,-206 1134,-138 874,-138"/>
</g>
<g id="clust34" class="cluster">
<title>cluster_UsersModule_exports</title>
<polygon fill="none" stroke="black" points="1022,-146 1022,-198 1126,-198 1126,-146 1022,-146"/>
</g>
<g id="clust36" class="cluster">
<title>cluster_UsersModule_providers</title>
<polygon fill="none" stroke="black" points="882,-146 882,-198 1014,-198 1014,-146 882,-146"/>
</g>
<g id="clust7" class="cluster">
<title>cluster_AuthModule</title>
<polygon fill="none" stroke="black" stroke-dasharray="1,5" points="874,-214 874,-282 1138,-282 1138,-214 874,-214"/>
</g>
<g id="clust10" class="cluster">
<title>cluster_AuthModule_exports</title>
<polygon fill="none" stroke="black" points="1024,-222 1024,-274 1130,-274 1130,-222 1024,-222"/>
</g>
<g id="clust12" class="cluster">
<title>cluster_AuthModule_providers</title>
<polygon fill="none" stroke="black" points="882,-222 882,-274 1016,-274 1016,-222 882,-222"/>
</g>
<!-- AuthModule -->
<g id="node1" class="node">
<title>AuthModule</title>
<polygon fill="#8dd3c7" stroke="black" points="849.55,-190 846.55,-194 825.55,-194 822.55,-190 762.45,-190 762.45,-154 849.55,-154 849.55,-190"/>
<text text-anchor="middle" x="806" y="-167.8" font-family="Times,serif" font-size="14.00">AuthModule</text>
</g>
<!-- AppModule -->
<g id="node6" class="node">
<title>AppModule</title>
<polygon fill="#8dd3c7" stroke="black" points="606.66,-266 603.66,-270 582.66,-270 579.66,-266 523.34,-266 523.34,-230 606.66,-230 606.66,-266"/>
<text text-anchor="middle" x="565" y="-243.8" font-family="Times,serif" font-size="14.00">AppModule</text>
</g>
<!-- AuthModule&#45;&gt;AppModule -->
<g id="edge1" class="edge">
<title>AuthModule&#45;&gt;AppModule</title>
<path fill="none" stroke="black" d="M806,-190.03C806,-214.98 806,-257 806,-257 806,-257 616.7,-257 616.7,-257"/>
<polygon fill="black" stroke="black" points="616.7,-253.5 606.7,-257 616.7,-260.5 616.7,-253.5"/>
</g>
<!-- AuthService  -->
<g id="node8" class="node">
<title>AuthService </title>
<polygon fill="#fb8072" stroke="black" points="1121.98,-266 1032.02,-266 1032.02,-230 1121.98,-230 1121.98,-266"/>
<text text-anchor="middle" x="1077" y="-243.8" font-family="Times,serif" font-size="14.00">AuthService </text>
</g>
<!-- AuthModule&#45;&gt;AuthService  -->
<g id="edge7" class="edge">
<title>AuthModule&#45;&gt;AuthService </title>
<path fill="none" stroke="black" stroke-dasharray="5,2" d="M784.11,-190.11C784.11,-199.9 784.11,-210 784.11,-210 784.11,-210 1075.11,-210 1075.11,-210 1075.11,-210 1075.11,-219.89 1075.11,-219.89"/>
<polygon fill="black" stroke="black" points="1071.61,-219.89 1075.11,-229.89 1078.61,-219.89 1071.61,-219.89"/>
</g>
<!-- MetaOptionsModule -->
<g id="node2" class="node">
<title>MetaOptionsModule</title>
<polygon fill="#8dd3c7" stroke="black" points="196.15,-190 193.15,-194 172.15,-194 169.15,-190 63.85,-190 63.85,-154 196.15,-154 196.15,-190"/>
<text text-anchor="middle" x="130" y="-167.8" font-family="Times,serif" font-size="14.00">MetaOptionsModule</text>
</g>
<!-- MetaOptionsModule&#45;&gt;AppModule -->
<g id="edge2" class="edge">
<title>MetaOptionsModule&#45;&gt;AppModule</title>
<path fill="none" stroke="black" d="M130,-190.03C130,-214.98 130,-257 130,-257 130,-257 513.29,-257 513.29,-257"/>
<polygon fill="black" stroke="black" points="513.29,-260.5 523.29,-257 513.29,-253.5 513.29,-260.5"/>
</g>
<!-- PostsModule -->
<g id="node3" class="node">
<title>PostsModule</title>
<polygon fill="#8dd3c7" stroke="black" points="463.61,-190 460.61,-194 439.61,-194 436.61,-190 374.39,-190 374.39,-154 463.61,-154 463.61,-190"/>
<text text-anchor="middle" x="419" y="-167.8" font-family="Times,serif" font-size="14.00">PostsModule</text>
</g>
<!-- PostsModule&#45;&gt;AppModule -->
<g id="edge3" class="edge">
<title>PostsModule&#45;&gt;AppModule</title>
<path fill="none" stroke="black" d="M419,-190.01C419,-212.49 419,-248 419,-248 419,-248 513.16,-248 513.16,-248"/>
<polygon fill="black" stroke="black" points="513.16,-251.5 523.16,-248 513.16,-244.5 513.16,-251.5"/>
</g>
<!-- TagsModule -->
<g id="node4" class="node">
<title>TagsModule</title>
<polygon fill="#8dd3c7" stroke="black" points="744.26,-190 741.26,-194 720.26,-194 717.26,-190 657.74,-190 657.74,-154 744.26,-154 744.26,-190"/>
<text text-anchor="middle" x="701" y="-167.8" font-family="Times,serif" font-size="14.00">TagsModule</text>
</g>
<!-- TagsModule&#45;&gt;AppModule -->
<g id="edge4" class="edge">
<title>TagsModule&#45;&gt;AppModule</title>
<path fill="none" stroke="black" d="M701,-190.01C701,-212.49 701,-248 701,-248 701,-248 616.91,-248 616.91,-248"/>
<polygon fill="black" stroke="black" points="616.91,-244.5 606.91,-248 616.91,-251.5 616.91,-244.5"/>
</g>
<!-- UsersModule -->
<g id="node5" class="node">
<title>UsersModule</title>
<polygon fill="#8dd3c7" stroke="black" points="479.92,-122 476.92,-126 455.92,-126 452.92,-122 388.08,-122 388.08,-86 479.92,-86 479.92,-122"/>
<text text-anchor="middle" x="434" y="-99.8" font-family="Times,serif" font-size="14.00">UsersModule</text>
</g>
<!-- UsersModule&#45;&gt;PostsModule -->
<g id="edge10" class="edge">
<title>UsersModule&#45;&gt;PostsModule</title>
<path fill="none" stroke="black" d="M425.92,-122.22C425.92,-122.22 425.92,-143.73 425.92,-143.73"/>
<polygon fill="black" stroke="black" points="422.42,-143.73 425.92,-153.73 429.42,-143.73 422.42,-143.73"/>
</g>
<!-- UsersModule&#45;&gt;AppModule -->
<g id="edge5" class="edge">
<title>UsersModule&#45;&gt;AppModule</title>
<path fill="none" stroke="black" d="M471.63,-122.21C471.63,-159.06 471.63,-239 471.63,-239 471.63,-239 513.23,-239 513.23,-239"/>
<polygon fill="black" stroke="black" points="513.23,-242.5 523.23,-239 513.23,-235.5 513.23,-242.5"/>
</g>
<!-- UserService  -->
<g id="node12" class="node">
<title>UserService </title>
<polygon fill="#fb8072" stroke="black" points="1117.9,-190 1030.1,-190 1030.1,-154 1117.9,-154 1117.9,-190"/>
<text text-anchor="middle" x="1074" y="-167.8" font-family="Times,serif" font-size="14.00">UserService </text>
</g>
<!-- UsersModule&#45;&gt;UserService  -->
<g id="edge12" class="edge">
<title>UsersModule&#45;&gt;UserService </title>
<path fill="none" stroke="black" stroke-dasharray="5,2" d="M479.77,-98C626.25,-98 1074,-98 1074,-98 1074,-98 1074,-143.71 1074,-143.71"/>
<polygon fill="black" stroke="black" points="1070.5,-143.71 1074,-153.71 1077.5,-143.71 1070.5,-143.71"/>
</g>
<!-- AppService -->
<g id="node7" class="node">
<title>AppService</title>
<ellipse fill="#fdb462" stroke="black" cx="577" cy="-172" rx="56.74" ry="18"/>
<text text-anchor="middle" x="577" y="-167.8" font-family="Times,serif" font-size="14.00">AppService</text>
</g>
<!-- AppService&#45;&gt;AppModule -->
<g id="edge6" class="edge">
<title>AppService&#45;&gt;AppModule</title>
<path fill="none" stroke="black" d="M565,-189.63C565,-189.63 565,-219.94 565,-219.94"/>
<polygon fill="black" stroke="black" points="561.5,-219.94 565,-229.94 568.5,-219.94 561.5,-219.94"/>
</g>
<!-- AuthService -->
<g id="node9" class="node">
<title>AuthService</title>
<ellipse fill="#fdb462" stroke="black" cx="949" cy="-248" rx="59.11" ry="18"/>
<text text-anchor="middle" x="949" y="-243.8" font-family="Times,serif" font-size="14.00">AuthService</text>
</g>
<!-- AuthService&#45;&gt;AuthModule -->
<g id="edge8" class="edge">
<title>AuthService&#45;&gt;AuthModule</title>
<path fill="none" stroke="black" d="M897.64,-239C864.63,-239 827.89,-239 827.89,-239 827.89,-239 827.89,-200.31 827.89,-200.31"/>
<polygon fill="black" stroke="black" points="831.39,-200.31 827.89,-190.31 824.39,-200.31 831.39,-200.31"/>
</g>
<!-- MetaOptionsService -->
<g id="node10" class="node">
<title>MetaOptionsService</title>
<ellipse fill="#fdb462" stroke="black" cx="114" cy="-104" rx="90.33" ry="18"/>
<text text-anchor="middle" x="114" y="-99.8" font-family="Times,serif" font-size="14.00">MetaOptionsService</text>
</g>
<!-- MetaOptionsService&#45;&gt;MetaOptionsModule -->
<g id="edge9" class="edge">
<title>MetaOptionsService&#45;&gt;MetaOptionsModule</title>
<path fill="none" stroke="black" d="M130,-121.87C130,-121.87 130,-143.54 130,-143.54"/>
<polygon fill="black" stroke="black" points="126.5,-143.54 130,-153.54 133.5,-143.54 126.5,-143.54"/>
</g>
<!-- PostsService -->
<g id="node11" class="node">
<title>PostsService</title>
<ellipse fill="#fdb462" stroke="black" cx="304" cy="-104" rx="60.27" ry="18"/>
<text text-anchor="middle" x="304" y="-99.8" font-family="Times,serif" font-size="14.00">PostsService</text>
</g>
<!-- PostsService&#45;&gt;PostsModule -->
<g id="edge11" class="edge">
<title>PostsService&#45;&gt;PostsModule</title>
<path fill="none" stroke="black" d="M364.58,-104C374.37,-104 381.37,-104 381.37,-104 381.37,-104 381.37,-143.78 381.37,-143.78"/>
<polygon fill="black" stroke="black" points="377.87,-143.78 381.37,-153.78 384.87,-143.78 377.87,-143.78"/>
</g>
<!-- UserService -->
<g id="node13" class="node">
<title>UserService</title>
<ellipse fill="#fdb462" stroke="black" cx="948" cy="-172" rx="58.44" ry="18"/>
<text text-anchor="middle" x="948" y="-167.8" font-family="Times,serif" font-size="14.00">UserService</text>
</g>
<!-- UserService&#45;&gt;UsersModule -->
<g id="edge13" class="edge">
<title>UserService&#45;&gt;UsersModule</title>
<path fill="none" stroke="black" d="M948,-153.73C948,-135.44 948,-110 948,-110 948,-110 490.07,-110 490.07,-110"/>
<polygon fill="black" stroke="black" points="490.07,-106.5 480.07,-110 490.07,-113.5 490.07,-106.5"/>
</g>
</g>
</svg>
